<mxfile host="Electron" agent="Mozilla/5.0 (X11; Linux x86_64) AppleWebKit/537.36 (KHTML, like Gecko) draw.io/27.0.9 Chrome/134.0.6998.205 Electron/35.4.0 Safari/537.36" version="27.0.9">
  <diagram name="Page-1" id="-_VZkfW9rMIznKhrZrfE">
    <mxGraphModel dx="1042" dy="639" grid="1" gridSize="10" guides="1" tooltips="1" connect="1" arrows="1" fold="1" page="1" pageScale="1" pageWidth="850" pageHeight="1100" math="0" shadow="0">
      <root>
        <mxCell id="0" />
        <mxCell id="1" parent="0" />
        <mxCell id="zNZISt4Ljxx41KLlrWgS-259" value="" style="shape=table;startSize=0;container=1;collapsible=0;childLayout=tableLayout;fontSize=16;strokeColor=none;fillColor=none;strokeWidth=2;swimlaneLine=1;perimeterSpacing=0;rowLines=0;columnLines=0;swimlaneHead=1;" vertex="1" parent="1">
          <mxGeometry x="450" y="82" width="205" height="284" as="geometry" />
        </mxCell>
        <mxCell id="zNZISt4Ljxx41KLlrWgS-260" value="" style="shape=tableRow;horizontal=0;startSize=0;swimlaneHead=0;swimlaneBody=0;strokeColor=inherit;top=0;left=0;bottom=0;right=0;collapsible=0;dropTarget=0;fillColor=none;points=[[0,0.5],[1,0.5]];portConstraint=eastwest;fontSize=16;" vertex="1" parent="zNZISt4Ljxx41KLlrWgS-259">
          <mxGeometry width="205" height="60" as="geometry" />
        </mxCell>
        <mxCell id="zNZISt4Ljxx41KLlrWgS-262" value="MÃ©moire physique" style="shape=partialRectangle;html=1;whiteSpace=wrap;connectable=0;strokeColor=inherit;overflow=visible;fillColor=none;top=1;left=1;bottom=1;right=1;pointerEvents=1;fontSize=16;strokeWidth=2;verticalAlign=middle;" vertex="1" parent="zNZISt4Ljxx41KLlrWgS-260">
          <mxGeometry width="130" height="60" as="geometry">
            <mxRectangle width="130" height="60" as="alternateBounds" />
          </mxGeometry>
        </mxCell>
        <mxCell id="zNZISt4Ljxx41KLlrWgS-278" value="0x0000" style="shape=partialRectangle;html=1;whiteSpace=wrap;connectable=0;strokeColor=inherit;overflow=visible;fillColor=none;top=1;left=1;bottom=1;right=1;pointerEvents=1;fontSize=16;strokeWidth=2;verticalAlign=bottom;align=left;spacing=0;spacingLeft=6;spacingBottom=-10;" vertex="1" parent="zNZISt4Ljxx41KLlrWgS-260">
          <mxGeometry x="130" width="75" height="60" as="geometry">
            <mxRectangle width="75" height="60" as="alternateBounds" />
          </mxGeometry>
        </mxCell>
        <mxCell id="zNZISt4Ljxx41KLlrWgS-263" value="" style="shape=tableRow;horizontal=0;startSize=0;swimlaneHead=0;swimlaneBody=0;strokeColor=inherit;top=0;left=0;bottom=0;right=0;collapsible=0;dropTarget=0;fillColor=none;portConstraint=eastwest;fontSize=16;swimlaneFillColor=none;points=[[0,0,0,0,0],[0,0.5,0,0,0],[0,1,0,0,0],[0.5,0,0,0,0],[0.5,1,0,0,0],[1,0,0,0,0],[1,0.5,0,0,0],[1,1,0,0,0]];" vertex="1" parent="zNZISt4Ljxx41KLlrWgS-259">
          <mxGeometry y="60" width="205" height="32" as="geometry" />
        </mxCell>
        <mxCell id="zNZISt4Ljxx41KLlrWgS-265" value="cadre 0" style="shape=partialRectangle;html=1;whiteSpace=wrap;connectable=0;strokeColor=#82b366;overflow=hidden;fillColor=#d5e8d4;top=1;left=1;bottom=1;right=1;pointerEvents=1;fontSize=16;strokeWidth=2;shadow=1;" vertex="1" parent="zNZISt4Ljxx41KLlrWgS-263">
          <mxGeometry width="130" height="32" as="geometry">
            <mxRectangle width="130" height="32" as="alternateBounds" />
          </mxGeometry>
        </mxCell>
        <mxCell id="zNZISt4Ljxx41KLlrWgS-279" value="0x1000" style="shape=partialRectangle;html=1;whiteSpace=wrap;connectable=0;strokeColor=inherit;overflow=hidden;fillColor=none;top=1;left=1;bottom=1;right=1;pointerEvents=1;fontSize=16;strokeWidth=2;align=left;spacing=0;spacingLeft=6;spacingBottom=-10;verticalAlign=bottom;" vertex="1" parent="zNZISt4Ljxx41KLlrWgS-263">
          <mxGeometry x="130" width="75" height="32" as="geometry">
            <mxRectangle width="75" height="32" as="alternateBounds" />
          </mxGeometry>
        </mxCell>
        <mxCell id="zNZISt4Ljxx41KLlrWgS-266" style="shape=tableRow;horizontal=0;startSize=0;swimlaneHead=0;swimlaneBody=0;strokeColor=inherit;top=0;left=0;bottom=0;right=0;collapsible=0;dropTarget=0;fillColor=none;portConstraint=eastwest;fontSize=16;swimlaneFillColor=none;points=[[0,0,0,0,0],[0,0.5,0,0,0],[0,1,0,0,0],[0.5,0,0,0,0],[0.5,1,0,0,0],[1,0,0,0,0],[1,0.5,0,0,0],[1,1,0,0,0]];" vertex="1" parent="zNZISt4Ljxx41KLlrWgS-259">
          <mxGeometry y="92" width="205" height="32" as="geometry" />
        </mxCell>
        <mxCell id="zNZISt4Ljxx41KLlrWgS-268" value="cadre 1" style="shape=partialRectangle;html=1;whiteSpace=wrap;connectable=0;strokeColor=#666666;overflow=hidden;fillColor=#f5f5f5;top=1;left=1;bottom=1;right=1;pointerEvents=1;fontSize=16;strokeWidth=2;fontColor=#333333;shadow=1;" vertex="1" parent="zNZISt4Ljxx41KLlrWgS-266">
          <mxGeometry width="130" height="32" as="geometry">
            <mxRectangle width="130" height="32" as="alternateBounds" />
          </mxGeometry>
        </mxCell>
        <mxCell id="zNZISt4Ljxx41KLlrWgS-280" value="0x2000" style="shape=partialRectangle;html=1;whiteSpace=wrap;connectable=0;strokeColor=inherit;overflow=hidden;fillColor=none;top=1;left=1;bottom=1;right=1;pointerEvents=1;fontSize=16;strokeWidth=2;align=left;spacing=0;spacingLeft=6;spacingBottom=-10;verticalAlign=bottom;" vertex="1" parent="zNZISt4Ljxx41KLlrWgS-266">
          <mxGeometry x="130" width="75" height="32" as="geometry">
            <mxRectangle width="75" height="32" as="alternateBounds" />
          </mxGeometry>
        </mxCell>
        <mxCell id="zNZISt4Ljxx41KLlrWgS-269" style="shape=tableRow;horizontal=0;startSize=0;swimlaneHead=0;swimlaneBody=0;strokeColor=inherit;top=0;left=0;bottom=0;right=0;collapsible=0;dropTarget=0;fillColor=none;portConstraint=eastwest;fontSize=16;swimlaneFillColor=none;points=[[0,0,0,0,0],[0,0.5,0,0,0],[0,1,0,0,0],[0.5,0,0,0,0],[0.5,1,0,0,0],[1,0,0,0,0],[1,0.5,0,0,0],[1,1,0,0,0]];" vertex="1" parent="zNZISt4Ljxx41KLlrWgS-259">
          <mxGeometry y="124" width="205" height="32" as="geometry" />
        </mxCell>
        <mxCell id="zNZISt4Ljxx41KLlrWgS-271" value="cadre 2" style="shape=partialRectangle;html=1;whiteSpace=wrap;connectable=0;strokeColor=#d79b00;overflow=hidden;fillColor=#ffe6cc;top=1;left=1;bottom=1;right=1;pointerEvents=1;fontSize=16;strokeWidth=2;shadow=1;" vertex="1" parent="zNZISt4Ljxx41KLlrWgS-269">
          <mxGeometry width="130" height="32" as="geometry">
            <mxRectangle width="130" height="32" as="alternateBounds" />
          </mxGeometry>
        </mxCell>
        <mxCell id="zNZISt4Ljxx41KLlrWgS-281" value="0x3000" style="shape=partialRectangle;html=1;whiteSpace=wrap;connectable=0;strokeColor=inherit;overflow=hidden;fillColor=none;top=1;left=1;bottom=1;right=1;pointerEvents=1;fontSize=16;strokeWidth=2;align=left;spacing=0;spacingLeft=6;spacingBottom=-10;verticalAlign=bottom;" vertex="1" parent="zNZISt4Ljxx41KLlrWgS-269">
          <mxGeometry x="130" width="75" height="32" as="geometry">
            <mxRectangle width="75" height="32" as="alternateBounds" />
          </mxGeometry>
        </mxCell>
        <mxCell id="zNZISt4Ljxx41KLlrWgS-272" style="shape=tableRow;horizontal=0;startSize=0;swimlaneHead=0;swimlaneBody=0;strokeColor=inherit;top=0;left=0;bottom=0;right=0;collapsible=0;dropTarget=0;fillColor=none;portConstraint=eastwest;fontSize=16;swimlaneFillColor=none;points=[[0,0,0,0,0],[0,0.5,0,0,0],[0,1,0,0,0],[0.5,0,0,0,0],[0.5,1,0,0,0],[1,0,0,0,0],[1,0.5,0,0,0],[1,1,0,0,0]];" vertex="1" parent="zNZISt4Ljxx41KLlrWgS-259">
          <mxGeometry y="156" width="205" height="32" as="geometry" />
        </mxCell>
        <mxCell id="zNZISt4Ljxx41KLlrWgS-274" value="cadre 3" style="shape=partialRectangle;html=1;whiteSpace=wrap;connectable=0;strokeColor=#666666;overflow=hidden;fillColor=#f5f5f5;top=1;left=1;bottom=1;right=1;pointerEvents=1;fontSize=16;strokeWidth=2;fontColor=#333333;shadow=1;" vertex="1" parent="zNZISt4Ljxx41KLlrWgS-272">
          <mxGeometry width="130" height="32" as="geometry">
            <mxRectangle width="130" height="32" as="alternateBounds" />
          </mxGeometry>
        </mxCell>
        <mxCell id="zNZISt4Ljxx41KLlrWgS-282" value="0x4000" style="shape=partialRectangle;html=1;whiteSpace=wrap;connectable=0;strokeColor=inherit;overflow=hidden;fillColor=none;top=1;left=1;bottom=1;right=1;pointerEvents=1;fontSize=16;strokeWidth=2;align=left;spacing=0;spacingLeft=6;spacingBottom=-10;verticalAlign=bottom;" vertex="1" parent="zNZISt4Ljxx41KLlrWgS-272">
          <mxGeometry x="130" width="75" height="32" as="geometry">
            <mxRectangle width="75" height="32" as="alternateBounds" />
          </mxGeometry>
        </mxCell>
        <mxCell id="zNZISt4Ljxx41KLlrWgS-296" style="shape=tableRow;horizontal=0;startSize=0;swimlaneHead=0;swimlaneBody=0;strokeColor=inherit;top=0;left=0;bottom=0;right=0;collapsible=0;dropTarget=0;fillColor=none;portConstraint=eastwest;fontSize=16;swimlaneFillColor=none;points=[[0,0,0,0,0],[0,0.5,0,0,0],[0,1,0,0,0],[0.5,0,0,0,0],[0.5,1,0,0,0],[1,0,0,0,0],[1,0.5,0,0,0],[1,1,0,0,0]];" vertex="1" parent="zNZISt4Ljxx41KLlrWgS-259">
          <mxGeometry y="188" width="205" height="32" as="geometry" />
        </mxCell>
        <mxCell id="zNZISt4Ljxx41KLlrWgS-297" value="cadre 4" style="shape=partialRectangle;html=1;whiteSpace=wrap;connectable=0;strokeColor=#6c8ebf;overflow=hidden;fillColor=#dae8fc;top=1;left=1;bottom=1;right=1;pointerEvents=1;fontSize=16;strokeWidth=2;shadow=1;" vertex="1" parent="zNZISt4Ljxx41KLlrWgS-296">
          <mxGeometry width="130" height="32" as="geometry">
            <mxRectangle width="130" height="32" as="alternateBounds" />
          </mxGeometry>
        </mxCell>
        <mxCell id="zNZISt4Ljxx41KLlrWgS-298" value="0x5000" style="shape=partialRectangle;html=1;whiteSpace=wrap;connectable=0;strokeColor=inherit;overflow=hidden;fillColor=none;top=1;left=1;bottom=1;right=1;pointerEvents=1;fontSize=16;strokeWidth=2;align=left;spacing=0;spacingLeft=6;spacingBottom=-10;verticalAlign=bottom;" vertex="1" parent="zNZISt4Ljxx41KLlrWgS-296">
          <mxGeometry x="130" width="75" height="32" as="geometry">
            <mxRectangle width="75" height="32" as="alternateBounds" />
          </mxGeometry>
        </mxCell>
        <mxCell id="zNZISt4Ljxx41KLlrWgS-293" style="shape=tableRow;horizontal=0;startSize=0;swimlaneHead=0;swimlaneBody=0;strokeColor=inherit;top=0;left=0;bottom=0;right=0;collapsible=0;dropTarget=0;fillColor=none;portConstraint=eastwest;fontSize=16;swimlaneFillColor=none;points=[[0,0,0,0,0],[0,0.5,0,0,0],[0,1,0,0,0],[0.5,0,0,0,0],[0.5,1,0,0,0],[1,0,0,0,0],[1,0.5,0,0,0],[1,1,0,0,0]];" vertex="1" parent="zNZISt4Ljxx41KLlrWgS-259">
          <mxGeometry y="220" width="205" height="32" as="geometry" />
        </mxCell>
        <mxCell id="zNZISt4Ljxx41KLlrWgS-294" value="cadre 5" style="shape=partialRectangle;html=1;whiteSpace=wrap;connectable=0;strokeColor=#666666;overflow=hidden;fillColor=#f5f5f5;top=1;left=1;bottom=1;right=1;pointerEvents=1;fontSize=16;strokeWidth=2;fontColor=#333333;shadow=1;" vertex="1" parent="zNZISt4Ljxx41KLlrWgS-293">
          <mxGeometry width="130" height="32" as="geometry">
            <mxRectangle width="130" height="32" as="alternateBounds" />
          </mxGeometry>
        </mxCell>
        <mxCell id="zNZISt4Ljxx41KLlrWgS-295" value="0x6000" style="shape=partialRectangle;html=1;whiteSpace=wrap;connectable=0;strokeColor=inherit;overflow=hidden;fillColor=none;top=1;left=1;bottom=1;right=1;pointerEvents=1;fontSize=16;strokeWidth=2;align=left;spacing=0;spacingLeft=6;spacingBottom=-10;verticalAlign=bottom;" vertex="1" parent="zNZISt4Ljxx41KLlrWgS-293">
          <mxGeometry x="130" width="75" height="32" as="geometry">
            <mxRectangle width="75" height="32" as="alternateBounds" />
          </mxGeometry>
        </mxCell>
        <mxCell id="zNZISt4Ljxx41KLlrWgS-290" style="shape=tableRow;horizontal=0;startSize=0;swimlaneHead=0;swimlaneBody=0;strokeColor=inherit;top=0;left=0;bottom=0;right=0;collapsible=0;dropTarget=0;fillColor=none;portConstraint=eastwest;fontSize=16;swimlaneFillColor=none;points=[[0,0,0,0,0],[0,0.5,0,0,0],[0,1,0,0,0],[0.5,0,0,0,0],[0.5,1,0,0,0],[1,0,0,0,0],[1,0.5,0,0,0],[1,1,0,0,0]];" vertex="1" parent="zNZISt4Ljxx41KLlrWgS-259">
          <mxGeometry y="252" width="205" height="32" as="geometry" />
        </mxCell>
        <mxCell id="zNZISt4Ljxx41KLlrWgS-291" value="cadre 6" style="shape=partialRectangle;html=1;whiteSpace=wrap;connectable=0;strokeColor=#b85450;overflow=hidden;fillColor=#f8cecc;top=1;left=1;bottom=1;right=1;pointerEvents=1;fontSize=16;strokeWidth=2;shadow=1;" vertex="1" parent="zNZISt4Ljxx41KLlrWgS-290">
          <mxGeometry width="130" height="32" as="geometry">
            <mxRectangle width="130" height="32" as="alternateBounds" />
          </mxGeometry>
        </mxCell>
        <mxCell id="zNZISt4Ljxx41KLlrWgS-292" value="0x7000" style="shape=partialRectangle;html=1;whiteSpace=wrap;connectable=0;strokeColor=inherit;overflow=hidden;fillColor=none;top=1;left=1;bottom=1;right=1;pointerEvents=1;fontSize=16;strokeWidth=2;align=left;spacing=0;spacingLeft=6;spacingBottom=-10;verticalAlign=bottom;" vertex="1" parent="zNZISt4Ljxx41KLlrWgS-290">
          <mxGeometry x="130" width="75" height="32" as="geometry">
            <mxRectangle width="75" height="32" as="alternateBounds" />
          </mxGeometry>
        </mxCell>
        <mxCell id="zNZISt4Ljxx41KLlrWgS-98" value="" style="shape=table;startSize=0;container=1;collapsible=0;childLayout=tableLayout;fontSize=16;strokeColor=none;fillColor=none;strokeWidth=2;swimlaneLine=1;perimeterSpacing=0;rowLines=0;columnLines=0;swimlaneHead=1;" vertex="1" parent="1">
          <mxGeometry x="60" y="130" width="190" height="188" as="geometry" />
        </mxCell>
        <mxCell id="zNZISt4Ljxx41KLlrWgS-99" value="" style="shape=tableRow;horizontal=0;startSize=0;swimlaneHead=0;swimlaneBody=0;strokeColor=inherit;top=0;left=0;bottom=0;right=0;collapsible=0;dropTarget=0;fillColor=none;points=[[0,0.5],[1,0.5]];portConstraint=eastwest;fontSize=16;" vertex="1" parent="zNZISt4Ljxx41KLlrWgS-98">
          <mxGeometry width="190" height="60" as="geometry" />
        </mxCell>
        <mxCell id="zNZISt4Ljxx41KLlrWgS-100" value="0x0000" style="shape=partialRectangle;html=1;whiteSpace=wrap;connectable=0;strokeColor=inherit;overflow=hidden;fillColor=none;top=1;left=1;bottom=1;right=1;pointerEvents=1;fontSize=16;strokeWidth=12;shadow=0;expand=1;verticalAlign=bottom;align=right;spacingBottom=-10;spacing=0;spacingRight=6;" vertex="1" parent="zNZISt4Ljxx41KLlrWgS-99">
          <mxGeometry width="60" height="60" as="geometry">
            <mxRectangle width="60" height="60" as="alternateBounds" />
          </mxGeometry>
        </mxCell>
        <mxCell id="zNZISt4Ljxx41KLlrWgS-101" value="MÃ©moire&amp;nbsp;&lt;div&gt;virtuelle&lt;/div&gt;" style="shape=partialRectangle;html=1;whiteSpace=wrap;connectable=0;strokeColor=inherit;overflow=visible;fillColor=none;top=1;left=1;bottom=1;right=1;pointerEvents=1;fontSize=16;strokeWidth=2;verticalAlign=middle;" vertex="1" parent="zNZISt4Ljxx41KLlrWgS-99">
          <mxGeometry x="60" width="130" height="60" as="geometry">
            <mxRectangle width="130" height="60" as="alternateBounds" />
          </mxGeometry>
        </mxCell>
        <mxCell id="zNZISt4Ljxx41KLlrWgS-103" value="" style="shape=tableRow;horizontal=0;startSize=0;swimlaneHead=0;swimlaneBody=0;strokeColor=inherit;top=0;left=0;bottom=0;right=0;collapsible=0;dropTarget=0;fillColor=none;portConstraint=eastwest;fontSize=16;swimlaneFillColor=none;points=[[0,0,0,0,0],[0,0.5,0,0,0],[0,1,0,0,0],[0.5,0,0,0,0],[0.5,1,0,0,0],[1,0,0,0,0],[1,0.5,0,0,0],[1,1,0,0,0]];" vertex="1" parent="zNZISt4Ljxx41KLlrWgS-98">
          <mxGeometry y="60" width="190" height="32" as="geometry" />
        </mxCell>
        <mxCell id="zNZISt4Ljxx41KLlrWgS-104" value="0x1000" style="shape=partialRectangle;html=1;whiteSpace=wrap;connectable=0;strokeColor=default;overflow=hidden;fillColor=none;top=0;left=0;bottom=0;right=0;pointerEvents=1;fontSize=16;strokeWidth=3;align=right;verticalAlign=bottom;spacing=0;spacingRight=6;spacingBottom=-10;" vertex="1" parent="zNZISt4Ljxx41KLlrWgS-103">
          <mxGeometry width="60" height="32" as="geometry">
            <mxRectangle width="60" height="32" as="alternateBounds" />
          </mxGeometry>
        </mxCell>
        <mxCell id="zNZISt4Ljxx41KLlrWgS-105" value="page 0" style="shape=partialRectangle;html=1;whiteSpace=wrap;connectable=0;strokeColor=#6c8ebf;overflow=hidden;fillColor=#dae8fc;top=1;left=1;bottom=1;right=1;pointerEvents=1;fontSize=16;strokeWidth=2;shadow=1;" vertex="1" parent="zNZISt4Ljxx41KLlrWgS-103">
          <mxGeometry x="60" width="130" height="32" as="geometry">
            <mxRectangle width="130" height="32" as="alternateBounds" />
          </mxGeometry>
        </mxCell>
        <mxCell id="zNZISt4Ljxx41KLlrWgS-235" style="shape=tableRow;horizontal=0;startSize=0;swimlaneHead=0;swimlaneBody=0;strokeColor=inherit;top=0;left=0;bottom=0;right=0;collapsible=0;dropTarget=0;fillColor=none;portConstraint=eastwest;fontSize=16;swimlaneFillColor=none;points=[[0,0,0,0,0],[0,0.5,0,0,0],[0,1,0,0,0],[0.5,0,0,0,0],[0.5,1,0,0,0],[1,0,0,0,0],[1,0.5,0,0,0],[1,1,0,0,0]];" vertex="1" parent="zNZISt4Ljxx41KLlrWgS-98">
          <mxGeometry y="92" width="190" height="32" as="geometry" />
        </mxCell>
        <mxCell id="zNZISt4Ljxx41KLlrWgS-236" value="0x2000" style="shape=partialRectangle;html=1;whiteSpace=wrap;connectable=0;strokeColor=default;overflow=hidden;fillColor=none;top=0;left=0;bottom=0;right=0;pointerEvents=1;fontSize=16;strokeWidth=3;align=right;verticalAlign=bottom;spacing=0;spacingRight=6;spacingBottom=-10;" vertex="1" parent="zNZISt4Ljxx41KLlrWgS-235">
          <mxGeometry width="60" height="32" as="geometry">
            <mxRectangle width="60" height="32" as="alternateBounds" />
          </mxGeometry>
        </mxCell>
        <mxCell id="zNZISt4Ljxx41KLlrWgS-237" value="page 1" style="shape=partialRectangle;html=1;whiteSpace=wrap;connectable=0;strokeColor=#82b366;overflow=hidden;fillColor=#d5e8d4;top=1;left=1;bottom=1;right=1;pointerEvents=1;fontSize=16;strokeWidth=2;shadow=1;" vertex="1" parent="zNZISt4Ljxx41KLlrWgS-235">
          <mxGeometry x="60" width="130" height="32" as="geometry">
            <mxRectangle width="130" height="32" as="alternateBounds" />
          </mxGeometry>
        </mxCell>
        <mxCell id="zNZISt4Ljxx41KLlrWgS-232" style="shape=tableRow;horizontal=0;startSize=0;swimlaneHead=0;swimlaneBody=0;strokeColor=inherit;top=0;left=0;bottom=0;right=0;collapsible=0;dropTarget=0;fillColor=none;portConstraint=eastwest;fontSize=16;swimlaneFillColor=none;points=[[0,0,0,0,0],[0,0.5,0,0,0],[0,1,0,0,0],[0.5,0,0,0,0],[0.5,1,0,0,0],[1,0,0,0,0],[1,0.5,0,0,0],[1,1,0,0,0]];" vertex="1" parent="zNZISt4Ljxx41KLlrWgS-98">
          <mxGeometry y="124" width="190" height="32" as="geometry" />
        </mxCell>
        <mxCell id="zNZISt4Ljxx41KLlrWgS-233" value="0x3000" style="shape=partialRectangle;html=1;whiteSpace=wrap;connectable=0;strokeColor=default;overflow=hidden;fillColor=none;top=0;left=0;bottom=0;right=0;pointerEvents=1;fontSize=16;strokeWidth=3;align=right;verticalAlign=bottom;spacing=0;spacingRight=6;spacingBottom=-10;" vertex="1" parent="zNZISt4Ljxx41KLlrWgS-232">
          <mxGeometry width="60" height="32" as="geometry">
            <mxRectangle width="60" height="32" as="alternateBounds" />
          </mxGeometry>
        </mxCell>
        <mxCell id="zNZISt4Ljxx41KLlrWgS-234" value="page 2" style="shape=partialRectangle;html=1;whiteSpace=wrap;connectable=0;strokeColor=#d79b00;overflow=hidden;fillColor=#ffe6cc;top=1;left=1;bottom=1;right=1;pointerEvents=1;fontSize=16;strokeWidth=2;shadow=1;" vertex="1" parent="zNZISt4Ljxx41KLlrWgS-232">
          <mxGeometry x="60" width="130" height="32" as="geometry">
            <mxRectangle width="130" height="32" as="alternateBounds" />
          </mxGeometry>
        </mxCell>
        <mxCell id="zNZISt4Ljxx41KLlrWgS-229" style="shape=tableRow;horizontal=0;startSize=0;swimlaneHead=0;swimlaneBody=0;strokeColor=inherit;top=0;left=0;bottom=0;right=0;collapsible=0;dropTarget=0;fillColor=none;portConstraint=eastwest;fontSize=16;swimlaneFillColor=none;points=[[0,0,0,0,0],[0,0.5,0,0,0],[0,1,0,0,0],[0.5,0,0,0,0],[0.5,1,0,0,0],[1,0,0,0,0],[1,0.5,0,0,0],[1,1,0,0,0]];" vertex="1" parent="zNZISt4Ljxx41KLlrWgS-98">
          <mxGeometry y="156" width="190" height="32" as="geometry" />
        </mxCell>
        <mxCell id="zNZISt4Ljxx41KLlrWgS-230" value="0x4000" style="shape=partialRectangle;html=1;whiteSpace=wrap;connectable=0;strokeColor=default;overflow=hidden;fillColor=none;top=0;left=0;bottom=0;right=0;pointerEvents=1;fontSize=16;strokeWidth=3;align=right;verticalAlign=bottom;spacing=0;spacingRight=6;spacingBottom=-10;" vertex="1" parent="zNZISt4Ljxx41KLlrWgS-229">
          <mxGeometry width="60" height="32" as="geometry">
            <mxRectangle width="60" height="32" as="alternateBounds" />
          </mxGeometry>
        </mxCell>
        <mxCell id="zNZISt4Ljxx41KLlrWgS-231" value="page 3" style="shape=partialRectangle;html=1;whiteSpace=wrap;connectable=0;strokeColor=#b85450;overflow=hidden;fillColor=#f8cecc;top=1;left=1;bottom=1;right=1;pointerEvents=1;fontSize=16;strokeWidth=2;shadow=1;" vertex="1" parent="zNZISt4Ljxx41KLlrWgS-229">
          <mxGeometry x="60" width="130" height="32" as="geometry">
            <mxRectangle width="130" height="32" as="alternateBounds" />
          </mxGeometry>
        </mxCell>
        <mxCell id="zNZISt4Ljxx41KLlrWgS-238" value="" style="shape=table;startSize=0;container=1;collapsible=0;childLayout=tableLayout;fontSize=16;strokeColor=none;fillColor=none;strokeWidth=2;swimlaneLine=1;perimeterSpacing=0;rowLines=0;columnLines=0;swimlaneHead=1;" vertex="1" parent="1">
          <mxGeometry x="320" y="130" width="40" height="188" as="geometry" />
        </mxCell>
        <mxCell id="zNZISt4Ljxx41KLlrWgS-239" value="" style="shape=tableRow;horizontal=0;startSize=0;swimlaneHead=0;swimlaneBody=0;strokeColor=inherit;top=0;left=0;bottom=0;right=0;collapsible=0;dropTarget=0;fillColor=none;points=[[0,0.5],[1,0.5]];portConstraint=eastwest;fontSize=16;" vertex="1" parent="zNZISt4Ljxx41KLlrWgS-238">
          <mxGeometry width="40" height="60" as="geometry" />
        </mxCell>
        <mxCell id="zNZISt4Ljxx41KLlrWgS-241" value="Table des Pages" style="shape=partialRectangle;connectable=0;strokeColor=inherit;overflow=visible;fillColor=none;top=1;left=1;bottom=1;right=1;pointerEvents=1;fontSize=16;strokeWidth=2;whiteSpace=wrap;html=1;verticalAlign=middle;" vertex="1" parent="zNZISt4Ljxx41KLlrWgS-239">
          <mxGeometry width="40" height="60" as="geometry">
            <mxRectangle width="40" height="60" as="alternateBounds" />
          </mxGeometry>
        </mxCell>
        <mxCell id="zNZISt4Ljxx41KLlrWgS-242" value="" style="shape=tableRow;horizontal=0;startSize=0;swimlaneHead=0;swimlaneBody=0;strokeColor=inherit;top=0;left=0;bottom=0;right=0;collapsible=0;dropTarget=0;fillColor=none;portConstraint=eastwest;fontSize=16;swimlaneFillColor=none;points=[[0,0,0,0,0],[0,0.5,0,0,0],[0,1,0,0,0],[0.5,0,0,0,0],[0.5,1,0,0,0],[1,0,0,0,0],[1,0.5,0,0,0],[1,1,0,0,0]];shadow=1;" vertex="1" parent="zNZISt4Ljxx41KLlrWgS-238">
          <mxGeometry y="60" width="40" height="32" as="geometry" />
        </mxCell>
        <mxCell id="zNZISt4Ljxx41KLlrWgS-244" value="4" style="shape=partialRectangle;html=1;whiteSpace=wrap;connectable=0;strokeColor=#6c8ebf;overflow=hidden;fillColor=#dae8fc;top=1;left=1;bottom=1;right=1;pointerEvents=1;fontSize=16;strokeWidth=2;shadow=1;" vertex="1" parent="zNZISt4Ljxx41KLlrWgS-242">
          <mxGeometry width="40" height="32" as="geometry">
            <mxRectangle width="40" height="32" as="alternateBounds" />
          </mxGeometry>
        </mxCell>
        <mxCell id="zNZISt4Ljxx41KLlrWgS-245" style="shape=tableRow;horizontal=0;startSize=0;swimlaneHead=0;swimlaneBody=0;strokeColor=inherit;top=0;left=0;bottom=0;right=0;collapsible=0;dropTarget=0;fillColor=none;portConstraint=eastwest;fontSize=16;swimlaneFillColor=none;points=[[0,0,0,0,0],[0,0.5,0,0,0],[0,1,0,0,0],[0.5,0,0,0,0],[0.5,1,0,0,0],[1,0,0,0,0],[1,0.5,0,0,0],[1,1,0,0,0]];" vertex="1" parent="zNZISt4Ljxx41KLlrWgS-238">
          <mxGeometry y="92" width="40" height="32" as="geometry" />
        </mxCell>
        <mxCell id="zNZISt4Ljxx41KLlrWgS-247" value="0" style="shape=partialRectangle;html=1;whiteSpace=wrap;connectable=0;strokeColor=#82b366;overflow=hidden;fillColor=#d5e8d4;top=1;left=1;bottom=1;right=1;pointerEvents=1;fontSize=16;strokeWidth=2;shadow=1;" vertex="1" parent="zNZISt4Ljxx41KLlrWgS-245">
          <mxGeometry width="40" height="32" as="geometry">
            <mxRectangle width="40" height="32" as="alternateBounds" />
          </mxGeometry>
        </mxCell>
        <mxCell id="zNZISt4Ljxx41KLlrWgS-248" style="shape=tableRow;horizontal=0;startSize=0;swimlaneHead=0;swimlaneBody=0;strokeColor=inherit;top=0;left=0;bottom=0;right=0;collapsible=0;dropTarget=0;fillColor=none;portConstraint=eastwest;fontSize=16;swimlaneFillColor=none;points=[[0,0,0,0,0],[0,0.5,0,0,0],[0,1,0,0,0],[0.5,0,0,0,0],[0.5,1,0,0,0],[1,0,0,0,0],[1,0.5,0,0,0],[1,1,0,0,0]];" vertex="1" parent="zNZISt4Ljxx41KLlrWgS-238">
          <mxGeometry y="124" width="40" height="32" as="geometry" />
        </mxCell>
        <mxCell id="zNZISt4Ljxx41KLlrWgS-250" value="2" style="shape=partialRectangle;html=1;whiteSpace=wrap;connectable=0;strokeColor=#d79b00;overflow=hidden;fillColor=#ffe6cc;top=1;left=1;bottom=1;right=1;pointerEvents=1;fontSize=16;strokeWidth=2;shadow=1;" vertex="1" parent="zNZISt4Ljxx41KLlrWgS-248">
          <mxGeometry width="40" height="32" as="geometry">
            <mxRectangle width="40" height="32" as="alternateBounds" />
          </mxGeometry>
        </mxCell>
        <mxCell id="zNZISt4Ljxx41KLlrWgS-251" style="shape=tableRow;horizontal=0;startSize=0;swimlaneHead=0;swimlaneBody=0;strokeColor=inherit;top=0;left=0;bottom=0;right=0;collapsible=0;dropTarget=0;fillColor=none;portConstraint=eastwest;fontSize=16;swimlaneFillColor=none;points=[[0,0,0,0,0],[0,0.5,0,0,0],[0,1,0,0,0],[0.5,0,0,0,0],[0.5,1,0,0,0],[1,0,0,0,0],[1,0.5,0,0,0],[1,1,0,0,0]];" vertex="1" parent="zNZISt4Ljxx41KLlrWgS-238">
          <mxGeometry y="156" width="40" height="32" as="geometry" />
        </mxCell>
        <mxCell id="zNZISt4Ljxx41KLlrWgS-253" value="6" style="shape=partialRectangle;html=1;whiteSpace=wrap;connectable=0;strokeColor=#b85450;overflow=hidden;fillColor=#f8cecc;top=1;left=1;bottom=1;right=1;pointerEvents=1;fontSize=16;strokeWidth=2;shadow=1;" vertex="1" parent="zNZISt4Ljxx41KLlrWgS-251">
          <mxGeometry width="40" height="32" as="geometry">
            <mxRectangle width="40" height="32" as="alternateBounds" />
          </mxGeometry>
        </mxCell>
        <mxCell id="zNZISt4Ljxx41KLlrWgS-257" value="" style="endArrow=none;dashed=1;html=1;strokeWidth=2;rounded=0;entryX=1;entryY=0;entryDx=0;entryDy=0;entryPerimeter=0;exitX=0;exitY=0;exitDx=0;exitDy=0;exitPerimeter=0;" edge="1" parent="1" source="zNZISt4Ljxx41KLlrWgS-242" target="zNZISt4Ljxx41KLlrWgS-103">
          <mxGeometry width="50" height="50" relative="1" as="geometry">
            <mxPoint x="410" y="300" as="sourcePoint" />
            <mxPoint x="460" y="250" as="targetPoint" />
          </mxGeometry>
        </mxCell>
        <mxCell id="zNZISt4Ljxx41KLlrWgS-258" value="" style="endArrow=none;dashed=1;html=1;strokeWidth=2;rounded=0;entryX=0;entryY=1;entryDx=0;entryDy=0;entryPerimeter=0;exitX=1;exitY=0;exitDx=0;exitDy=0;exitPerimeter=0;" edge="1" parent="1" source="zNZISt4Ljxx41KLlrWgS-235" target="zNZISt4Ljxx41KLlrWgS-242">
          <mxGeometry width="50" height="50" relative="1" as="geometry">
            <mxPoint x="280" y="290" as="sourcePoint" />
            <mxPoint x="330" y="240" as="targetPoint" />
          </mxGeometry>
        </mxCell>
        <mxCell id="zNZISt4Ljxx41KLlrWgS-350" value="" style="endArrow=none;dashed=1;html=1;strokeWidth=2;rounded=0;entryX=0;entryY=0;entryDx=0;entryDy=0;entryPerimeter=0;exitX=1;exitY=0;exitDx=0;exitDy=0;exitPerimeter=0;" edge="1" parent="1" source="zNZISt4Ljxx41KLlrWgS-229" target="zNZISt4Ljxx41KLlrWgS-251">
          <mxGeometry width="50" height="50" relative="1" as="geometry">
            <mxPoint x="300" y="260" as="sourcePoint" />
            <mxPoint x="430" y="260" as="targetPoint" />
          </mxGeometry>
        </mxCell>
        <mxCell id="zNZISt4Ljxx41KLlrWgS-358" value="" style="endArrow=none;dashed=1;html=1;strokeWidth=2;rounded=0;entryX=0;entryY=0;entryDx=0;entryDy=0;entryPerimeter=0;exitX=1;exitY=0;exitDx=0;exitDy=0;exitPerimeter=0;" edge="1" parent="1" source="zNZISt4Ljxx41KLlrWgS-232" target="zNZISt4Ljxx41KLlrWgS-248">
          <mxGeometry width="50" height="50" relative="1" as="geometry">
            <mxPoint x="280" y="220" as="sourcePoint" />
            <mxPoint x="350" y="220" as="targetPoint" />
          </mxGeometry>
        </mxCell>
        <mxCell id="zNZISt4Ljxx41KLlrWgS-362" value="" style="endArrow=none;dashed=1;html=1;strokeWidth=2;rounded=0;entryX=0;entryY=1;entryDx=0;entryDy=0;entryPerimeter=0;exitX=1;exitY=1;exitDx=0;exitDy=0;exitPerimeter=0;" edge="1" parent="1" source="zNZISt4Ljxx41KLlrWgS-229" target="zNZISt4Ljxx41KLlrWgS-251">
          <mxGeometry width="50" height="50" relative="1" as="geometry">
            <mxPoint x="230" y="330" as="sourcePoint" />
            <mxPoint x="300" y="330" as="targetPoint" />
          </mxGeometry>
        </mxCell>
        <mxCell id="zNZISt4Ljxx41KLlrWgS-363" value="" style="endArrow=none;dashed=1;html=1;strokeWidth=2;rounded=0;entryX=0;entryY=1;entryDx=0;entryDy=0;entryPerimeter=0;exitX=1;exitY=1;exitDx=0;exitDy=0;exitPerimeter=0;" edge="1" parent="1" source="zNZISt4Ljxx41KLlrWgS-251" target="zNZISt4Ljxx41KLlrWgS-290">
          <mxGeometry width="50" height="50" relative="1" as="geometry">
            <mxPoint x="280" y="360" as="sourcePoint" />
            <mxPoint x="350" y="360" as="targetPoint" />
          </mxGeometry>
        </mxCell>
        <mxCell id="zNZISt4Ljxx41KLlrWgS-364" value="" style="endArrow=none;dashed=1;html=1;strokeWidth=2;rounded=0;entryX=0;entryY=0;entryDx=0;entryDy=0;entryPerimeter=0;exitX=1;exitY=0;exitDx=0;exitDy=0;exitPerimeter=0;" edge="1" parent="1" source="zNZISt4Ljxx41KLlrWgS-251" target="zNZISt4Ljxx41KLlrWgS-272">
          <mxGeometry width="50" height="50" relative="1" as="geometry">
            <mxPoint x="360" y="380" as="sourcePoint" />
            <mxPoint x="425" y="426" as="targetPoint" />
          </mxGeometry>
        </mxCell>
        <mxCell id="zNZISt4Ljxx41KLlrWgS-365" value="" style="endArrow=none;dashed=1;html=1;strokeWidth=2;rounded=0;entryX=0;entryY=0;entryDx=0;entryDy=0;entryPerimeter=0;exitX=1;exitY=0;exitDx=0;exitDy=0;exitPerimeter=0;" edge="1" parent="1" source="zNZISt4Ljxx41KLlrWgS-248" target="zNZISt4Ljxx41KLlrWgS-269">
          <mxGeometry width="50" height="50" relative="1" as="geometry">
            <mxPoint x="360" y="290" as="sourcePoint" />
            <mxPoint x="425" y="336" as="targetPoint" />
          </mxGeometry>
        </mxCell>
        <mxCell id="zNZISt4Ljxx41KLlrWgS-366" value="" style="endArrow=none;dashed=1;html=1;strokeWidth=2;rounded=0;entryX=1;entryY=0;entryDx=0;entryDy=0;entryPerimeter=0;exitX=0;exitY=0;exitDx=0;exitDy=0;exitPerimeter=0;" edge="1" parent="1" source="zNZISt4Ljxx41KLlrWgS-266" target="zNZISt4Ljxx41KLlrWgS-248">
          <mxGeometry width="50" height="50" relative="1" as="geometry">
            <mxPoint x="390" y="400" as="sourcePoint" />
            <mxPoint x="455" y="446" as="targetPoint" />
          </mxGeometry>
        </mxCell>
        <mxCell id="zNZISt4Ljxx41KLlrWgS-367" value="" style="endArrow=none;dashed=1;html=1;strokeWidth=2;rounded=0;entryX=1;entryY=0;entryDx=0;entryDy=0;entryPerimeter=0;exitX=0;exitY=0;exitDx=0;exitDy=0;exitPerimeter=0;" edge="1" parent="1" source="zNZISt4Ljxx41KLlrWgS-263" target="zNZISt4Ljxx41KLlrWgS-245">
          <mxGeometry width="50" height="50" relative="1" as="geometry">
            <mxPoint x="435" y="270" as="sourcePoint" />
            <mxPoint x="370" y="288" as="targetPoint" />
          </mxGeometry>
        </mxCell>
        <mxCell id="zNZISt4Ljxx41KLlrWgS-368" value="" style="endArrow=none;dashed=1;html=1;strokeWidth=2;rounded=0;entryX=1;entryY=0;entryDx=0;entryDy=0;entryPerimeter=0;exitX=0;exitY=0;exitDx=0;exitDy=0;exitPerimeter=0;" edge="1" parent="1" source="zNZISt4Ljxx41KLlrWgS-296" target="zNZISt4Ljxx41KLlrWgS-242">
          <mxGeometry width="50" height="50" relative="1" as="geometry">
            <mxPoint x="425" y="440" as="sourcePoint" />
            <mxPoint x="360" y="458" as="targetPoint" />
          </mxGeometry>
        </mxCell>
        <mxCell id="zNZISt4Ljxx41KLlrWgS-369" value="" style="endArrow=none;dashed=1;html=1;strokeWidth=2;rounded=0;entryX=1;entryY=0;entryDx=0;entryDy=0;entryPerimeter=0;exitX=0;exitY=0;exitDx=0;exitDy=0;exitPerimeter=0;" edge="1" parent="1" source="zNZISt4Ljxx41KLlrWgS-293" target="zNZISt4Ljxx41KLlrWgS-245">
          <mxGeometry width="50" height="50" relative="1" as="geometry">
            <mxPoint x="455" y="460" as="sourcePoint" />
            <mxPoint x="390" y="478" as="targetPoint" />
          </mxGeometry>
        </mxCell>
        <mxCell id="zNZISt4Ljxx41KLlrWgS-370" value="" style="endArrow=none;dashed=1;html=1;strokeWidth=2;rounded=0;entryX=1;entryY=0;entryDx=0;entryDy=0;entryPerimeter=0;exitX=0;exitY=0;exitDx=0;exitDy=0;exitPerimeter=0;" edge="1" parent="1" source="zNZISt4Ljxx41KLlrWgS-290" target="zNZISt4Ljxx41KLlrWgS-251">
          <mxGeometry width="50" height="50" relative="1" as="geometry">
            <mxPoint x="445" y="430" as="sourcePoint" />
            <mxPoint x="380" y="448" as="targetPoint" />
          </mxGeometry>
        </mxCell>
      </root>
    </mxGraphModel>
  </diagram>
</mxfile>
